<svg xmlns="http://www.w3.org/2000/svg" xmlns:xlink="http://www.w3.org/1999/xlink" width="22" height="22" viewBox="0 0 22 22"><defs><path id="mrgwa" d="M427 535.5a9.5 9.5 0 1 1-19 0 9.5 9.5 0 0 1 19 0zm-1.73 0a7.77 7.77 0 1 0-15.54 0 7.77 7.77 0 0 0 15.54 0zm-8.66 5.5l.12-1.3a7.33 7.33 0 0 1-1.25-.3 3.5 3.5 0 0 1-.86-.4l.26-1.56c.27.16.58.3.91.43.34.13.7.22 1.1.28l.23-2.38-.24-.13-.75-.42a3.24 3.24 0 0 1-.67-.52 2.22 2.22 0 0 1-.66-1.63c0-.3.06-.58.17-.86.12-.27.3-.5.53-.7.23-.2.53-.37.88-.5.36-.12.77-.18 1.25-.18l.1-1.18.86.09-.12 1.16a4.35 4.35 0 0 1 1.65.56l-.2 1.55c-.28-.13-.55-.24-.8-.34-.26-.1-.53-.17-.8-.22l-.22 2.09.16.07c.42.21.76.43 1.04.65.27.22.5.44.65.66.16.23.27.46.34.7.06.24.1.48.1.72 0 .42-.09.78-.25 1.07-.16.3-.38.54-.64.73-.26.19-.56.33-.9.43-.33.1-.67.15-1.02.16l-.12 1.36zm2.18-3.6c0-.23-.06-.44-.17-.6a2.37 2.37 0 0 0-.69-.57l-.2 1.96c.38-.03.65-.12.81-.28.17-.16.25-.32.25-.5zm-2.4-4.33c0 .2.05.38.17.52.12.14.37.3.73.51l.18-1.73a1.5 1.5 0 0 0-.82.2.58.58 0 0 0-.27.5z"/></defs><g><g transform="translate(-406 -524)"><use fill="#0f9e42" xlink:href="#mrgwa"/></g></g></svg>